<svg width="24" height="24" viewBox="0 0 24 24" fill="none" xmlns="http://www.w3.org/2000/svg">
<path fill-rule="evenodd" clip-rule="evenodd" d="M16.5136 21.5003H8.16579C5.09943 21.5003 2.74703 20.3927 3.41522 15.9351L4.19325 9.89387C4.60515 7.66962 6.02392 6.81836 7.26877 6.81836H17.4473C18.7104 6.81836 20.0468 7.73369 20.5228 9.89387L21.3008 15.9351C21.8683 19.8893 19.58 21.5003 16.5136 21.5003Z" stroke="#212121" stroke-width="1.5" stroke-linecap="round" stroke-linejoin="round"/>
<path d="M16.651 6.59873C16.651 4.21265 14.7167 2.27836 12.3306 2.27836V2.27836C11.1816 2.27349 10.078 2.72652 9.26381 3.53727C8.44963 4.34803 7.99193 5.44971 7.99194 6.59873H7.99194" stroke="#212121" stroke-width="1.5" stroke-linecap="round" stroke-linejoin="round"/>
<path d="M15.2962 11.1022H15.2505" stroke="#212121" stroke-width="1.5" stroke-linecap="round" stroke-linejoin="round"/>
<path d="M9.46566 11.1022H9.41989" stroke="#212121" stroke-width="1.5" stroke-linecap="round" stroke-linejoin="round"/>
</svg>
