<svg width="24" height="24" viewBox="0 0 24 24" fill="none" xmlns="http://www.w3.org/2000/svg">
<path fill-rule="evenodd" clip-rule="evenodd" d="M14.5328 9.46753L7.71351 16.2874C7.53626 16.1847 7.36835 16.1194 7.21909 16.1101C5.92239 16.0168 5.41864 16.1661 4.70965 15.5597C3.9447 14.9066 4.00067 13.162 4.00067 11.8839C4.00067 10.6057 3.9447 8.86112 4.70965 8.20806C5.41864 7.60164 5.92239 7.76024 7.21909 7.65762C8.51578 7.55499 11.2584 3.59931 13.3761 4.84945C14.2343 5.54916 14.4675 6.85529 14.5328 9.46753Z" stroke="#212121" stroke-width="1.5" stroke-linecap="round" stroke-linejoin="round"/>
<path d="M14.5329 13.917C14.4956 16.7905 14.2717 18.1899 13.3762 18.9176C12.3966 19.496 11.2865 18.9642 10.2417 18.2085" stroke="#212121" stroke-width="1.5" stroke-linecap="round" stroke-linejoin="round"/>
<path d="M4.00122 20L7.71406 16.2869L14.5334 9.46706L20 4" stroke="#212121" stroke-width="1.5" stroke-linecap="round" stroke-linejoin="round"/>
</svg>
