<svg width="37" height="26" viewBox="0 0 37 26" fill="none" xmlns="http://www.w3.org/2000/svg">
<path fill-rule="evenodd" clip-rule="evenodd" d="M12.275 11.8064H5.36646V21.9874C5.36646 24.5417 9.01372 24.331 11.1519 24.5648L18.8094 25.433L30.1019 24.1793C31.2337 23.9741 32.2732 23.2386 32.2732 21.9874V11.8064H25.0011C24.1438 11.8064 23.1252 11.0272 22.7072 10.4643L19.4249 4.47463C19.1342 3.87706 19.1053 3.60405 18.638 3.26172L15.4261 9.32178C14.8349 10.4383 14.1786 11.8065 12.2749 11.8065L12.275 11.8064Z" fill="#9E9E9E"/>
<path fill-rule="evenodd" clip-rule="evenodd" d="M19.9105 0.534269C19.9332 1.55589 21.7787 4.81611 22.3345 5.92772C23.2898 7.83825 24.1808 10.5334 25.7281 10.5334H36.4545C36.8287 10.5334 36.9815 10.3778 36.9999 10.141V10.0372C36.9572 9.40617 36.1832 8.35099 35.9433 7.95387C35.0559 6.48448 32.848 2.37547 31.7843 1.93184C30.9732 1.59358 27.0747 1.20773 25.9097 1.07977C24.6517 0.941571 20.7248 0.218082 19.9104 0.534269H19.9105Z" fill="#9E9E9E"/>
<path fill-rule="evenodd" clip-rule="evenodd" d="M0.639404 9.98865C0.639404 10.4076 0.76589 10.534 1.18479 10.534H11.9111C13.3093 10.534 13.8712 8.79567 14.3958 7.74637C18.8112 -1.08546 19.0827 0.22026 13.0173 0.913754C11.4728 1.09033 10.0025 1.2957 8.35369 1.52241C6.28458 1.80697 5.50042 1.67493 4.57694 3.19978C4.05543 4.06085 0.639461 9.48571 0.639461 9.98865H0.639404Z" fill="#9E9E9E"/>
</svg>
