<svg width="186" height="180" viewBox="0 0 186 180" fill="none" xmlns="http://www.w3.org/2000/svg">
<circle cx="95.5002" cy="90.5" r="70.5" fill="url(#paint0_linear_75_7229)"/>
<circle cx="178.467" cy="27.5" r="7.5" fill="#FF7981"/>
<circle cx="20.0334" cy="10" r="10" fill="#FF7981"/>
<circle cx="10.0334" cy="133" r="5" fill="#FF7981"/>
<circle cx="165.533" cy="160.5" r="2.5" fill="#FF7981"/>
<path fill-rule="evenodd" clip-rule="evenodd" d="M84.856 65.9165H106.17C114.503 65.9165 120.084 71.7673 120.084 80.4698V100.557C120.084 109.232 114.503 115.083 106.17 115.083H84.856C76.5222 115.083 70.9172 109.232 70.9172 100.557V80.4698C70.9172 71.7673 76.5222 65.9165 84.856 65.9165ZM94.0993 97.8502L105.776 86.1732C106.612 85.3373 106.612 83.9852 105.776 83.1248C104.941 82.289 103.564 82.289 102.728 83.1248L92.5751 93.2777L88.2731 88.9757C87.4372 88.1398 86.0606 88.1398 85.2247 88.9757C84.3889 89.8115 84.3889 91.1636 85.2247 92.024L91.0756 97.8502C91.4935 98.2682 92.0343 98.4648 92.5751 98.4648C93.1406 98.4648 93.6814 98.2682 94.0993 97.8502Z" fill="white"/>
<circle cx="106.533" cy="4.5" r="2.5" fill="#FF7981"/>
<circle cx="62.5334" cy="176.5" r="3.5" fill="#FF7981"/>
<circle cx="122.033" cy="171" r="1" fill="#FDBF66"/>
<circle cx="170.533" cy="110.5" r="2.5" fill="#FF7981"/>
<circle cx="1.03345" cy="75" r="1" fill="#FDBF66"/>
<defs>
<linearGradient id="paint0_linear_75_7229" x1="27.3416" y1="24.8288" x2="189.361" y2="90.1384" gradientUnits="userSpaceOnUse">
<stop stop-color="#E2292E"/>
<stop offset="1" stop-color="#C70425"/>
</linearGradient>
</defs>
</svg>
