<svg width="150" height="68" viewBox="0 0 150 68" fill="none" xmlns="http://www.w3.org/2000/svg">
<path fill-rule="evenodd" clip-rule="evenodd" d="M45.3346 6.29618L90.6258 32.6796L144.944 1.03762C143.662 0.3774 142.196 0 140.621 0H54.2136C50.1758 0 46.6155 2.55278 45.3346 6.29618ZM43.6202 12.4718L31.5831 56.2963C31.0468 58.2491 31.1804 60.1924 31.8237 61.918L76.7118 31.7486L43.6202 12.4718ZM81.4287 34.4961L34.6934 65.9071C36.2924 67.2059 38.3459 68 40.6302 68H127.038C131.269 68 134.976 65.1968 136.085 61.1583L136.81 58.5199L100.489 34.1085L92.2117 38.93C91.233 39.5 90.0186 39.5 89.0399 38.93L81.4287 34.4961ZM149.669 11.7037L138.182 53.524L105.206 31.3607L149.272 5.69067C150.047 7.51091 150.246 9.6016 149.669 11.7037Z" fill="#C9CAD1"/>
<path fill-rule="evenodd" clip-rule="evenodd" d="M0 12.3643C0 10.6572 1.3991 9.27344 3.12498 9.27344H31.2498C32.9757 9.27344 34.3748 10.6572 34.3748 12.3643C34.3748 14.0715 32.9757 15.4553 31.2498 15.4553H3.12498C1.3991 15.4553 0 14.0715 0 12.3643ZM0 30.9098C0 29.2027 1.3991 27.8189 3.12498 27.8189H24.9998C26.7257 27.8189 28.1248 29.2027 28.1248 30.9098C28.1248 32.6169 26.7257 34.0007 24.9998 34.0007H3.12498C1.3991 34.0007 0 32.6169 0 30.9098ZM3.12498 46.3643C1.3991 46.3643 0 47.7481 0 49.4552C0 51.1624 1.3991 52.5462 3.12498 52.5462H18.7499C20.4757 52.5462 21.8748 51.1624 21.8748 49.4552C21.8748 47.7481 20.4757 46.3643 18.7499 46.3643H3.12498Z" fill="#C9CAD1"/>
</svg>
