<svg width="18" height="18" viewBox="0 0 18 18" fill="none" xmlns="http://www.w3.org/2000/svg">
<circle cx="9.07925" cy="8.74868" r="8.52993" fill="#FB0000"/>
<path fill-rule="evenodd" clip-rule="evenodd" d="M7.78202 9.54516C7.64459 9.32165 7.51018 9.14194 7.34557 8.93505C7.13717 8.67378 7.10092 8.55297 6.67958 8.69039C6.42285 8.77497 6.15554 8.85652 5.88522 8.94562C5.44425 9.08908 4.79939 9.17819 5.25396 9.59953C5.72967 10.0405 6.13138 10.4105 6.54819 10.9285C6.87137 11.3287 7.1266 11.7213 7.38333 12.2106C7.51018 12.4508 7.57965 12.7347 7.93153 12.7181C8.06442 12.712 8.55071 12.4931 8.70021 12.4311C9.30429 12.182 9.33147 11.8497 9.58821 11.22C9.78453 10.7397 10.0247 10.267 10.2753 9.81096C10.8175 8.82027 11.6179 7.78428 12.3564 7.13188C12.4485 7.05033 12.5376 6.97784 12.6388 6.88874C13.2791 6.3194 13.8983 6.1714 13.267 5.94789C12.9363 5.8301 12.7113 5.97356 12.45 6.11099C11.7281 6.49005 10.8628 7.07147 10.2678 7.62269C9.58367 8.25848 9.1125 8.77497 8.56732 9.59047L8.17014 10.2263L7.78202 9.54516Z" fill="white"/>
</svg>
