<svg width="17" height="26" viewBox="0 0 17 26" fill="none" xmlns="http://www.w3.org/2000/svg">
<path d="M0.897351 23.755L2.20578 20.7936C2.3697 20.4225 2.52747 19.767 2.55023 19.3622L2.6544 17.5179C2.67953 17.0732 2.70007 8.06075 2.70007 8.06075C2.69985 7.41529 3.10829 6.86443 3.86911 6.83929L7.1014 6.6985C7.51436 6.68034 8.18696 6.85516 8.35563 7.71155L8.94319 11.4467C8.97871 11.6726 9.21047 11.8739 9.43912 11.8774L11.9944 11.9166C12.5993 11.9258 13.1039 12.3245 13.1433 12.824C13.1607 13.0442 13.0845 13.2619 12.9287 13.4369C12.7311 13.6589 12.4255 13.7933 12.0903 13.8057L8.38032 13.943L8.38966 14.7796L10.0264 19.0547C10.1999 19.5076 10.3734 20.2407 10.4213 20.7239L10.7671 24.2112C10.799 24.5324 10.7008 24.8374 10.4907 25.0702C10.2806 25.303 9.98716 25.4318 9.66443 25.4329L9.51852 25.4334C9.51845 25.4334 9.51845 25.4334 9.51837 25.4334C8.88752 25.4334 8.31671 24.9236 8.2459 24.2967L7.92213 21.4287C7.87861 21.0435 7.65442 20.4212 7.44237 20.097L5.75954 17.5236L5.06729 20.4072C4.95705 20.8665 4.69807 21.5851 4.49004 22.0092L3.26969 24.4966C3.04408 24.9565 2.53474 25.2656 2.00219 25.2656C1.8978 25.2656 1.79504 25.2532 1.69695 25.2289L1.60888 25.207C1.29489 25.1291 1.03763 24.927 0.903062 24.6525C0.768497 24.378 0.766643 24.0509 0.897351 23.755ZM9.51874 25.0625V25.0627V25.0625Z" fill="#9E9E9E"/>
<path d="M10.6703 11.0997C10.0714 11.0997 9.55045 10.6137 9.50879 10.0164L9.27428 6.64547C9.25345 6.3452 9.35287 6.06065 9.55424 5.84438C9.7556 5.62811 10.0323 5.50867 10.3334 5.50808L14.9675 5.5C15.5663 5.5 16.0873 5.98599 16.1289 6.58326L16.3635 9.95419C16.3843 10.2545 16.2849 10.5389 16.0835 10.7553C15.8821 10.9716 15.6054 11.0911 15.3043 11.0916L10.6721 11.0997H10.6703Z" fill="#9E9E9E"/>
<path d="M9.30666 2.13772C9.15994 2.53823 8.72971 2.87631 8.30592 2.92405L7.62309 3.00109C7.66023 3.48307 7.57156 3.96861 7.35781 4.41664C7.0359 5.09147 6.47043 5.60044 5.76573 5.84985C5.4639 5.95676 5.14962 6.01095 4.83179 6.01095C4.83164 6.01095 4.83171 6.01095 4.83156 6.01095C3.64866 6.01095 2.58838 5.26125 2.19336 4.14551C1.9438 3.44088 1.98369 2.68124 2.30561 2.00642C2.62752 1.33167 3.19292 0.822623 3.89769 0.573068C4.19959 0.466306 4.5138 0.412109 4.83149 0.412109C5.37909 0.412109 5.90022 0.572919 6.34143 0.855987L8.79791 0.622297C8.82735 0.619479 8.85611 0.618145 8.88384 0.618145C9.12383 0.618145 9.33254 0.719791 9.45635 0.89706C9.58336 1.07885 9.60627 1.31936 9.5193 1.55698L9.30666 2.13772Z" fill="#9E9E9E"/>
</svg>
