<svg width="26" height="29" viewBox="0 0 26 29" fill="none" xmlns="http://www.w3.org/2000/svg">
<path fill-rule="evenodd" clip-rule="evenodd" d="M12.1479 14.6007V28.6222L7.6186 26.0199C7.37148 25.8709 7.12662 25.7302 6.85017 25.5796L0.75929 22.0609C0.489976 21.8978 0.239809 21.772 -1.90735e-06 21.6114V7.65039C0.319398 7.7248 4.13684 9.96704 4.55919 10.2228L6.08553 11.114C6.61367 11.4079 7.06187 11.6717 7.58022 11.9764L12.1479 14.6007Z" fill="#404040"/>
<path fill-rule="evenodd" clip-rule="evenodd" d="M25.0212 21.6114C24.7951 21.7628 24.54 21.8929 24.2995 22.0379L21.9994 23.3641C21.4905 23.6397 21.0267 23.9384 20.5071 24.2289L15.9436 26.8575C15.4218 27.1704 14.9438 27.4272 14.4098 27.7411C13.8825 28.0511 13.4026 28.3421 12.8733 28.6222V14.6007L17.6669 11.8396C17.8503 11.7295 18.1873 11.5076 18.3731 11.458V15.2655C18.5763 15.1919 18.419 15.2423 18.527 15.1954L19.055 14.904C19.0592 14.9029 19.076 14.904 19.0803 14.9029C19.1574 14.8822 19.0611 14.9455 19.1786 14.856C19.1846 14.8514 19.1972 14.8363 19.2034 14.8313C19.2098 14.8261 19.223 14.8116 19.2295 14.8063L19.3431 14.7302C19.7698 14.4293 19.3358 14.7124 19.6862 14.5456L19.9783 14.4206C20.0635 14.3957 20.0479 14.4784 20.0669 14.3047L20.0653 10.4305C20.2656 10.377 20.4899 10.1979 20.6904 10.0886L23.7551 8.31835C23.9702 8.1945 24.1458 8.09899 24.375 7.97127C24.5762 7.85922 24.7796 7.67049 25.0212 7.65039V21.6114L25.0212 21.6114Z" fill="#404040"/>
<path fill-rule="evenodd" clip-rule="evenodd" d="M17.9499 10.7932C17.7719 11.0361 15.023 12.5282 14.5764 12.7986L12.5105 13.9963L11.0182 13.1316C8.56968 11.7633 5.87588 10.091 3.46563 8.77802C2.99606 8.52224 0.676756 7.11383 0.423063 7.04608L4.80951 4.42177C5.0055 4.30655 5.67606 3.82566 5.89738 3.86674L11.3886 7.01971C13.0975 8.05449 15.0654 9.12092 16.8274 10.1631C17.2232 10.3973 17.5565 10.585 17.9499 10.7932Z" fill="#404040"/>
<path fill-rule="evenodd" clip-rule="evenodd" d="M24.5979 6.9254L19.7629 9.82641C18.9161 9.25941 16.3744 7.88673 15.2871 7.23104L12.2567 5.48692C11.8807 5.26151 7.92939 2.93524 7.67539 2.87611C7.73096 2.66797 7.77626 2.68359 8.09823 2.51328C9.36852 1.84136 11.0522 0.755227 12.3097 0.0699958C12.5718 -0.072864 12.6372 0.025002 12.862 0.166513L16.0761 2.03C18.0553 3.10025 20.4068 4.56118 22.4407 5.69805L24.5979 6.92544L24.5979 6.9254Z" fill="#404040"/>
</svg>
