<svg width="18" height="19" viewBox="0 0 18 19" fill="none" xmlns="http://www.w3.org/2000/svg">
<path fill-rule="evenodd" clip-rule="evenodd" d="M0 9.50521C0 4.53763 4.03958 0.5 9 0.5C13.9604 0.5 18 4.53763 18 9.50521C18 14.4624 13.9604 18.5 9 18.5C4.03958 18.5 0 14.4624 0 9.50521ZM12.3012 10.4161C12.3967 10.3205 12.5183 10.1729 12.5444 10.1382C12.6834 9.95586 12.7529 9.7301 12.7529 9.50521C12.7529 9.25253 12.6747 9.01809 12.527 8.82706C12.5149 8.81496 12.4912 8.78917 12.4603 8.75556C12.4026 8.69266 12.3196 8.60238 12.2403 8.52315C11.528 7.75904 9.66891 6.50868 8.69594 6.12663C8.54826 6.06671 8.17471 5.9356 7.9749 5.92692C7.78378 5.92692 7.60135 5.97033 7.4276 6.05716C7.21042 6.17873 7.03667 6.36975 6.94111 6.59551C6.8803 6.75181 6.78474 7.22069 6.78474 7.22938C6.68918 7.74168 6.63706 8.57525 6.63706 9.49566C6.63706 10.3735 6.68918 11.1715 6.76737 11.6925C6.76952 11.6946 6.77699 11.7319 6.7886 11.7898C6.82389 11.9657 6.89742 12.3324 6.97586 12.4826C7.16698 12.8473 7.54054 13.0731 7.94015 13.0731H7.9749C8.23552 13.0644 8.78281 12.8386 8.78281 12.83C9.70366 12.4479 11.5193 11.2583 12.249 10.4682L12.3012 10.4161Z" fill="white"/>
</svg>
