<svg width="37" height="26" viewBox="0 0 37 26" fill="none" xmlns="http://www.w3.org/2000/svg">
<path fill-rule="evenodd" clip-rule="evenodd" d="M0.397949 18.5535H0.410949V20.5425C0.410949 21.2426 0.980573 21.8122 1.68066 21.8122H3.83191C4.16694 24.1084 6.14874 25.8776 8.53665 25.8776C10.9248 25.8776 12.9066 24.1084 13.2418 21.8122H21.948C21.9932 21.8122 22.0395 21.8092 22.0858 21.8062C22.4183 24.1053 24.4013 25.8776 26.7913 25.8776C29.1794 25.8776 31.1613 24.1084 31.4964 21.8122H34.5864C35.8028 21.8122 36.7924 20.8227 36.7924 19.6064V15.8635C36.7923 12.8809 35.1127 12.5285 34.0014 12.2953L33.9948 12.2939C33.8602 12.2657 33.733 12.239 33.6198 12.2095C32.3151 11.8702 31.7196 11.6843 31.2793 10.8342L29.6115 7.45756C29.0754 6.42282 27.6914 5.58093 26.5262 5.58093H23.557V1.68182C23.557 0.981734 22.9873 0.412109 22.287 0.412109L1.60627 0.432877C0.924876 0.432877 0.411043 0.974371 0.411043 1.69249V2.84496H0.397949V6.81336H0.410949V8.7151H0.397949V12.6834H0.410949V14.5851H0.397949V18.5535ZM28.5205 21.1228C28.5205 20.1696 27.7447 19.3942 26.7913 19.3942C25.8382 19.3942 25.0628 20.1696 25.0628 21.1228C25.0628 22.076 25.8382 22.8514 26.7913 22.8514C27.7447 22.8514 28.5205 22.076 28.5205 21.1228ZM23.557 7.42245V12.0264H29.7553C29.7214 11.9709 29.6888 11.9129 29.6573 11.8521L28.1732 8.84736C27.7739 8.07685 26.6981 7.42245 25.826 7.42245H23.557ZM8.53665 22.8513C9.49012 22.8513 10.2658 22.0758 10.2658 21.1227C10.2658 20.1696 9.49012 19.3942 8.53665 19.3941C7.58356 19.3941 6.80823 20.1695 6.80823 21.1227C6.80823 22.0759 7.58356 22.8513 8.53665 22.8513Z" fill="#404040"/>
</svg>
