<svg width="129" height="141" viewBox="0 0 129 141" fill="none" xmlns="http://www.w3.org/2000/svg">
<g clip-path="url(#clip0_3227_1510)">
<path d="M69.0887 14.769C73.586 26.7943 88.3046 24.9847 98.2923 22.4162C100.687 21.774 103.14 21.0735 105.301 19.8476C107.462 18.6218 109.273 16.637 109.974 14.2436C110.733 11.5583 109.857 8.58119 108.338 6.24617C106.937 4.08628 104.892 1.80964 102.731 0.408632C101.797 2.80202 98.4675 2.97715 96.1896 2.97715C92.9772 2.97715 90.0568 1.75127 87.0781 0.875636C84.0409 4.20213e-06 80.7701 -0.175122 77.7329 0.642134C71.6002 2.10152 66.694 8.34769 69.0887 14.769Z" fill="black"/>
<path d="M78.2586 95.2687C78.0834 95.2687 78.025 95.2687 77.9082 95.3271L78.2586 95.2687Z" fill="black"/>
<path d="M78.2586 95.2687C78.0834 95.2687 78.025 95.2687 77.9082 95.3271L78.2586 95.2687Z" fill="black"/>
<path d="M65.2923 36.7181V25.4517C65.2923 15.8781 74.2286 8.0558 85.1507 8.0558C90.5826 8.0558 95.5472 9.98219 99.1684 13.1345C102.79 16.2867 105.009 20.6065 105.009 25.3933V36.6598" stroke="black" stroke-width="1.47253" stroke-miterlimit="10"/>
<path d="M105.009 48.9186V61.9363C105.009 71.5099 96.0729 79.3322 85.1507 79.3322C74.2286 79.3322 65.2923 71.5099 65.2923 61.9363V48.9186" stroke="black" stroke-width="1.47253" stroke-miterlimit="10"/>
<path d="M73.3524 52.9465C78.9329 52.9465 83.4569 48.4251 83.4569 42.8476C83.4569 37.2701 78.9329 32.7486 73.3524 32.7486C67.7719 32.7486 63.248 37.2701 63.248 42.8476C63.248 48.4251 67.7719 52.9465 73.3524 52.9465Z" stroke="black" stroke-width="1.47253" stroke-miterlimit="10"/>
<path d="M96.8905 52.9465C102.471 52.9465 106.995 48.4251 106.995 42.8476C106.995 37.2701 102.471 32.7486 96.8905 32.7486C91.31 32.7486 86.7861 37.2701 86.7861 42.8476C86.7861 48.4251 91.31 52.9465 96.8905 52.9465Z" stroke="black" stroke-width="1.47253" stroke-miterlimit="10"/>
<path d="M83.3984 42.5557H86.9029" stroke="black" stroke-width="2.94506" stroke-miterlimit="10"/>
<path d="M93.2693 77.7561H93.3277V96.0276" stroke="black" stroke-width="1.47253" stroke-miterlimit="10"/>
<path d="M78.7259 95.7941V78.2231" stroke="black" stroke-width="1.47253" stroke-miterlimit="10"/>
<path d="M73.3525 45.1826C74.6428 45.1826 75.6887 44.1372 75.6887 42.8476C75.6887 41.558 74.6428 40.5125 73.3525 40.5125C72.0622 40.5125 71.0162 41.558 71.0162 42.8476C71.0162 44.1372 72.0622 45.1826 73.3525 45.1826Z" fill="black"/>
<path d="M96.8905 45.1826C98.1808 45.1826 99.2268 44.1372 99.2268 42.8476C99.2268 41.558 98.1808 40.5125 96.8905 40.5125C95.6002 40.5125 94.5542 41.558 94.5542 42.8476C94.5542 44.1372 95.6002 45.1826 96.8905 45.1826Z" fill="black"/>
<path d="M63.9489 46.642H62.7807C61.4958 46.642 60.3276 47.1673 59.4515 47.9846C58.6338 48.8602 58.1082 50.0277 58.1082 51.312C58.1082 53.8805 60.2108 55.982 62.7807 55.982H65.117" stroke="black" stroke-width="1.47253" stroke-miterlimit="10"/>
<path d="M106.294 46.642H107.462C110.032 46.642 112.135 48.7435 112.135 51.312C112.135 52.5962 111.609 53.7638 110.733 54.6394C109.915 55.4566 108.747 55.982 107.462 55.982H105.126" stroke="black" stroke-width="1.47253" stroke-miterlimit="10"/>
<path d="M65.1755 49.911V52.713H63.3064C62.5471 52.713 61.9047 52.0709 61.9047 51.312C61.9047 50.9034 62.0799 50.5531 62.3135 50.3196C62.5471 50.0861 62.8976 49.911 63.3064 49.911H65.1755Z" fill="black"/>
<path d="M105.126 52.713V49.911H106.995C107.754 49.911 108.397 50.5531 108.397 51.312C108.397 51.7206 108.222 52.0709 107.988 52.3044C107.754 52.5379 107.404 52.713 106.995 52.713H105.126Z" fill="black"/>
<path d="M85.1507 52.4795C85.1507 52.4795 82.2304 57.1495 86.903 55.982" stroke="black" stroke-width="1.47253" stroke-miterlimit="10" stroke-linecap="round"/>
<path d="M79.894 65.9642C79.894 65.9642 84.5666 71.7434 90.9914 65.9642" stroke="black" stroke-width="1.47253" stroke-miterlimit="10" stroke-linecap="round"/>
<path d="M68.7966 30.8806C68.7966 30.8806 72.009 27.67 77.5577 30.2969" stroke="black" stroke-width="2.20879" stroke-miterlimit="10" stroke-linecap="round"/>
<path d="M101.505 30.8806C101.505 30.8806 98.2923 27.67 92.7436 30.2969" stroke="black" stroke-width="2.20879" stroke-miterlimit="10" stroke-linecap="round"/>
<path d="M65.1754 24.2258C65.1754 24.2258 57.1153 17.9796 60.6197 10.3908C64.1241 2.80201 75.2215 6.88829 75.2215 6.88829C75.2215 6.88829 79.6604 25.8019 65.1754 24.2258Z" fill="black"/>
<path d="M25.1082 70.8683C24.4073 68.5916 23.4144 67.4825 22.8887 64.1551C21.779 57.5003 22.1878 51.1374 19.4427 51.3709C18.333 51.4876 17.9825 52.6551 18.0409 53.2973L18.917 63.8048C18.5666 65.0307 17.9241 64.5637 17.9241 64.5637C17.9241 64.5637 15.6462 55.2236 15.3542 53.5308C15.0622 51.8963 14.2445 50.9622 13.1347 51.079C11.2073 51.2541 11.9666 53.5891 12.1418 54.4648L14.1861 65.7896C14.3613 66.8987 13.1931 66.5485 13.1931 66.5485L8.63738 55.2237C8.11172 53.9978 7.1188 54.2896 7.1188 54.2896C5.30818 54.6983 6.00906 56.3328 6.00906 56.3328L9.92234 68.3581C9.92234 68.4165 9.92234 68.4749 9.92234 68.5332C9.98075 69.1754 9.16305 69.5256 8.8126 68.9419C7.58605 67.0739 5.19136 64.0967 3.20552 62.9292C2.2126 62.3455 1.51171 62.4622 1.10286 62.7541C0.694011 63.046 0.635604 63.5713 0.927639 63.98L8.22853 74.5459C9.92234 85.754 16.756 87.0966 16.756 87.0966L20.8445 103.092L26.8604 128.31L27.6197 131.52C28.3206 134.614 31.1241 136.832 34.2781 136.832H37.4905C39.7684 136.832 41.3454 134.614 40.6445 132.513L26.1011 88.2641L25.4586 84.4114C26.8604 82.8352 27.7949 79.5078 28.2622 77.1144C28.5542 75.8302 28.671 74.4875 28.5542 73.2033C28.3206 69.9926 30.4817 64.2135 30.4817 64.2135C30.3064 63.1043 28.2038 64.0383 28.2038 64.0383C25.8675 64.8556 25.2834 68.5916 25.1082 70.6348C25.0498 71.5104 24.6409 72.2693 24.0569 72.853C20.5524 76.2972 20.2604 80.15 20.2604 80.15" stroke="black" stroke-width="1.47253" stroke-miterlimit="10"/>
<path d="M15.2957 53.5886C15.0037 51.9541 14.478 50.7282 13.0763 51.1369C11.2072 51.6622 11.9081 53.647 12.0833 54.5226" stroke="black" stroke-width="1.47253" stroke-miterlimit="10"/>
<path d="M128.956 140.043V140.626H116.223L113.537 125.741V140.626H58.4002V132.162C58.4002 130.119 58.4002 128.076 58.4587 126.033C57.2321 127.025 55.8887 127.842 54.3117 128.718L42.1047 136.89C42.0462 136.949 41.9878 136.949 41.9294 137.007C41.4038 137.299 40.8197 137.474 40.1772 137.474L37.6387 137.57C37.6387 137.57 40.3524 136.54 40.9949 133.972L36.6144 119.378C42.8639 114.182 52.9684 99.1798 72.3596 96.0859C73.1772 95.9108 74.0534 95.7357 74.9879 95.6189C75.864 95.5022 76.7401 95.3854 77.733 95.3271L78.3755 95.2687V95.3854L78.025 95.4438C78.1419 95.4438 78.2003 95.4438 78.3171 95.3854H78.3755C78.4923 95.3854 78.6091 95.3854 78.7259 95.3271H78.7843L79.3684 95.2687V97.4869C79.3684 97.7788 79.4852 98.1291 79.7773 98.421C80.6534 99.4133 82.6392 100.172 85.0339 100.347C85.4427 100.406 85.8516 100.406 86.2605 100.406C86.3189 100.406 86.3773 100.406 86.3773 100.406H86.4357C88.772 100.347 90.933 99.7052 92.0428 98.7712C92.3932 98.4793 92.7436 98.0707 92.7436 97.4869V95.4438L93.3277 95.5606H93.4445C93.6198 95.5606 93.7366 95.6189 93.9118 95.6189V95.4438L94.6711 95.5606C116.106 98.1874 128.956 114.824 128.956 140.043Z" fill="black"/>
<path d="M42.0462 136.832L41.871 136.949C41.9294 136.949 41.9878 136.89 42.0462 136.832Z" fill="black"/>
</g>
<defs>
<clipPath id="clip0_3227_1510">
<rect width="128.846" height="140.626" fill="white" transform="translate(0.109863)"/>
</clipPath>
</defs>
</svg>
